<svg width="48" height="48" viewBox="0 0 48 48" fill="none" xmlns="http://www.w3.org/2000/svg">
<path d="M24 46.5C36.4264 46.5 46.5 36.4264 46.5 24C46.5 11.5736 36.4264 1.5 24 1.5C11.5736 1.5 1.5 11.5736 1.5 24C1.5 36.4264 11.5736 46.5 24 46.5Z" stroke="white" stroke-width="3" stroke-miterlimit="10" stroke-linejoin="round"/>
<path d="M39 40.5C39 32.2155 32.2845 25.5 24 25.5C15.7155 25.5 9 32.2155 9 40.5" stroke="white" stroke-width="3" stroke-miterlimit="10" stroke-linejoin="round"/>
<path d="M24 25.5C28.9706 25.5 33 21.4706 33 16.5C33 11.5294 28.9706 7.5 24 7.5C19.0294 7.5 15 11.5294 15 16.5C15 21.4706 19.0294 25.5 24 25.5Z" stroke="white" stroke-width="3" stroke-miterlimit="10" stroke-linejoin="round"/>
</svg>
