<svg width="40" height="40" viewBox="0 0 40 40" fill="none" xmlns="http://www.w3.org/2000/svg">
<g clip-path="url(#clip0_12_31)">
<path fill-rule="evenodd" clip-rule="evenodd" d="M2.4 40H37.6C38.2365 40 38.847 39.7471 39.2971 39.2971C39.7471 38.847 40 38.2365 40 37.6V2.4C40 1.76348 39.7471 1.15303 39.2971 0.702944C38.847 0.252856 38.2365 0 37.6 0L2.4 0C1.76348 0 1.15303 0.252856 0.702944 0.702944C0.252856 1.15303 0 1.76348 0 2.4L0 37.6C0 38.2365 0.252856 38.847 0.702944 39.2971C1.15303 39.7471 1.76348 40 2.4 40Z" fill="#C0392B"/>
<path fill-rule="evenodd" clip-rule="evenodd" d="M40 12H39.99C39.9401 11.4536 39.6878 10.9455 39.2827 10.5755C38.8775 10.2055 38.3487 10.0002 37.8 10H2.5C1.1748 10 0 8.9256 0 7.6V2.4C0 1.76348 0.252856 1.15303 0.702944 0.702944C1.15303 0.252856 1.76348 0 2.4 0L37.6 0C38.9252 0 40 1.0748 40 2.4004V12Z" fill="#E74C3C"/>
<path opacity="0.15" fill-rule="evenodd" clip-rule="evenodd" d="M2 40H2.8V0H2V40Z" fill="black"/>
<path opacity="0.15" fill-rule="evenodd" clip-rule="evenodd" d="M2.8 40H3.6V0H2.8V40Z" fill="white"/>
<path fill-rule="evenodd" clip-rule="evenodd" d="M40 4.00043C40 3.46999 39.7893 2.96129 39.4142 2.58621C39.0391 2.21114 38.5304 2.00043 38 2.00043H2.8C2.58783 2.00043 2.38434 2.08471 2.23431 2.23474C2.08429 2.38477 2 2.58825 2 2.80043V7.20043C2 7.4126 2.08429 7.61608 2.23431 7.76611C2.38434 7.91614 2.58783 8.00043 2.8 8.00043H37.6C38.2365 8.00043 38.847 8.25328 39.2971 8.70337C39.7471 9.15346 40 9.76391 40 10.4004V4.40043H39.9596C39.986 4.27123 40 4.13723 40 4.00043Z" fill="white"/>
<path opacity="0.2" fill-rule="evenodd" clip-rule="evenodd" d="M40 6.16919V4.60079C40 4.60079 40.0732 3.00079 38 3.00079H2V3.80079H37.6C38.2095 3.8011 38.7961 4.03351 39.2404 4.45079C39.6847 4.86806 39.9535 5.43887 39.992 6.04719C39.9492 5.64719 39.6764 4.60119 38 4.60119H2V5.40119H37.6C38.2095 5.4015 38.7961 5.63391 39.2404 6.05119C39.6847 6.46846 39.9535 7.03927 39.992 7.64759C39.9492 7.24719 39.6764 6.20119 38 6.20119H2V7.00119H37.6C38.2365 7.00119 38.847 7.25405 39.2971 7.70414C39.7471 8.15422 40 8.76467 40 9.40119V6.16919Z" fill="#95A5A6"/>
<path fill-rule="evenodd" clip-rule="evenodd" d="M32 40H36V10H32V40Z" fill="#2980B9"/>
<path fill-rule="evenodd" clip-rule="evenodd" d="M32 10.0028H36V0H32V10.0028Z" fill="#3498DB"/>
<path opacity="0.1" fill-rule="evenodd" clip-rule="evenodd" d="M32.8 40H33.6V0H32.8V40ZM34.4 0V40H35.2V0H34.4Z" fill="black"/>
</g>
<defs>
<clipPath id="clip0_12_31">
<rect width="40" height="40" fill="white"/>
</clipPath>
</defs>
</svg>
