<svg width="40" height="40" viewBox="0 0 40 40" fill="none" xmlns="http://www.w3.org/2000/svg">
<path d="M8 1.79999H32C34.2092 1.79999 36 3.59119 36 5.79999V23.8C36 26.0084 34.2092 27.8 32 27.8H8C5.7912 27.8 4 26.0084 4 23.8V5.79999C4 3.59119 5.7912 1.79999 8 1.79999Z" fill="#EBEDEE"/>
<path d="M5.6 38.2H6.4L10.4 34.2H5.6V38.2ZM29.6 34.2L33.6 38.2H34.4V34.2H29.6Z" fill="#212E3C"/>
<path d="M20 11C19.6817 11 19.3765 11.1264 19.1515 11.3515C18.9264 11.5765 18.8 11.8817 18.8 12.2C18.8 12.5183 18.9264 12.8235 19.1515 13.0485C19.3765 13.2736 19.6817 13.4 20 13.4C20.3183 13.4 20.6235 13.2736 20.8485 13.0485C21.0736 12.8235 21.2 12.5183 21.2 12.2C21.2 11.8817 21.0736 11.5765 20.8485 11.3515C20.6235 11.1264 20.3183 11 20 11ZM13.6 7C13.2817 7 12.9765 7.12643 12.7515 7.35147C12.5264 7.57652 12.4 7.88174 12.4 8.2C12.4 8.51826 12.5264 8.82348 12.7515 9.04853C12.9765 9.27357 13.2817 9.4 13.6 9.4C13.9183 9.4 14.2235 9.27357 14.4485 9.04853C14.6736 8.82348 14.8 8.51826 14.8 8.2C14.8 7.88174 14.6736 7.57652 14.4485 7.35147C14.2235 7.12643 13.9183 7 13.6 7ZM26.4 9.4C26.7183 9.4 27.0235 9.27357 27.2485 9.04853C27.4736 8.82348 27.6 8.51826 27.6 8.2C27.6 7.88174 27.4736 7.57652 27.2485 7.35147C27.0235 7.12643 26.7183 7 26.4 7C26.0817 7 25.7765 7.12643 25.5515 7.35147C25.3264 7.57652 25.2 7.88174 25.2 8.2C25.2 8.51826 25.3264 8.82348 25.5515 9.04853C25.7765 9.27357 26.0817 9.4 26.4 9.4ZM13.6 15C13.2817 15 12.9765 15.1264 12.7515 15.3515C12.5264 15.5765 12.4 15.8817 12.4 16.2C12.4 16.5183 12.5264 16.8235 12.7515 17.0485C12.9765 17.2736 13.2817 17.4 13.6 17.4C13.9183 17.4 14.2235 17.2736 14.4485 17.0485C14.6736 16.8235 14.8 16.5183 14.8 16.2C14.8 15.8817 14.6736 15.5765 14.4485 15.3515C14.2235 15.1264 13.9183 15 13.6 15ZM26.4 15C26.0817 15 25.7765 15.1264 25.5515 15.3515C25.3264 15.5765 25.2 15.8817 25.2 16.2C25.2 16.5183 25.3264 16.8235 25.5515 17.0485C25.7765 17.2736 26.0817 17.4 26.4 17.4C26.7183 17.4 27.0235 17.2736 27.2485 17.0485C27.4736 16.8235 27.6 16.5183 27.6 16.2C27.6 15.8817 27.4736 15.5765 27.2485 15.3515C27.0235 15.1264 26.7183 15 26.4 15Z" fill="#BDC3C7"/>
<path d="M4 27.4H36V34.2H4V27.4Z" fill="#283848"/>
<path d="M36 16.2C38.2092 16.2 40 17.9916 40 20.2V30.2C40 32.4092 38.2092 34.2 36 34.2C33.7908 34.2 32 32.4092 32 30.2V20.2C32 17.9916 33.7908 16.2 36 16.2Z" fill="#2C3E50"/>
<path d="M36 18.2C37.3248 18.2 38.4 19.2752 38.4 20.6V29.8C38.4 30.4365 38.1471 31.047 37.6971 31.4971C37.247 31.9472 36.6365 32.2 36 32.2C35.3635 32.2 34.753 31.9472 34.3029 31.4971C33.8529 31.047 33.6 30.4365 33.6 29.8V20.6C33.6 19.2752 34.6752 18.2 36 18.2Z" fill="#34495E"/>
<path d="M4 16.2C6.2088 16.2 8 17.9916 8 20.2V30.2C8 32.4092 6.2088 34.2 4 34.2C1.7912 34.2 0 32.4092 0 30.2V20.2C0 17.9916 1.7912 16.2 4 16.2Z" fill="#2C3E50"/>
<path d="M4 18.2C5.3252 18.2 6.4 19.2752 6.4 20.6V29.8C6.4 30.4365 6.14714 31.047 5.69705 31.4971C5.24697 31.9472 4.63652 32.2 4 32.2C3.36348 32.2 2.75303 31.9472 2.30294 31.4971C1.85285 31.047 1.6 30.4365 1.6 29.8V20.6C1.6 19.2752 2.6748 18.2 4 18.2Z" fill="#34495E"/>
<path d="M8 27.4H32V28.6H8V27.4Z" fill="#253241"/>
<path d="M8.2 22.2H31.8C32.4896 22.2 33.1509 22.4739 33.6385 22.9615C34.1261 23.4491 34.4 24.1104 34.4 24.8C34.4 25.4896 34.1261 26.1509 33.6385 26.6385C33.1509 27.1261 32.4896 27.4 31.8 27.4H8.2C7.51044 27.4 6.84912 27.1261 6.36152 26.6385C5.87393 26.1509 5.6 25.4896 5.6 24.8C5.6 24.1104 5.87393 23.4491 6.36152 22.9615C6.84912 22.4739 7.51044 22.2 8.2 22.2Z" fill="#BDC3C7"/>
</svg>
