<svg width="40" height="40" viewBox="0 0 40 40" fill="none" xmlns="http://www.w3.org/2000/svg">
<path fill-rule="evenodd" clip-rule="evenodd" d="M38 31.6H24.8V36.4H26.6C26.7591 36.4 26.9117 36.4632 27.0243 36.5757C27.1368 36.6883 27.2 36.8409 27.2 37C27.2 37.1591 27.1368 37.3117 27.0243 37.4243C26.9117 37.5368 26.7591 37.6 26.6 37.6H13.4C13.2409 37.6 13.0883 37.5368 12.9757 37.4243C12.8632 37.3117 12.8 37.1591 12.8 37C12.8 36.8409 12.8632 36.6883 12.9757 36.5757C13.0883 36.4632 13.2409 36.4 13.4 36.4H15.2V31.6H2C1.46957 31.6 0.960859 31.3893 0.585786 31.0142C0.210714 30.6391 0 30.1304 0 29.6L0 26H40V29.6C40 30.1304 39.7893 30.6391 39.4142 31.0142C39.0391 31.3893 38.5304 31.6 38 31.6Z" fill="#BDC3C7"/>
<path fill-rule="evenodd" clip-rule="evenodd" d="M15.2 31.6H24.8V32.4H15.2V31.6Z" fill="#95A5A5"/>
<path fill-rule="evenodd" clip-rule="evenodd" d="M2 0H38C38.5304 0 39.0391 0.210714 39.4142 0.585786C39.7893 0.960859 40 1.46957 40 2V26H0V2C0 1.46957 0.210714 0.960859 0.585786 0.585786C0.960859 0.210714 1.46957 0 2 0Z" fill="#2C3E50"/>
<path fill-rule="evenodd" clip-rule="evenodd" d="M2 2H38V24H2V2Z" fill="#35495E"/>
<path d="M20 29.6C20.4418 29.6 20.8 29.2418 20.8 28.8C20.8 28.3582 20.4418 28 20 28C19.5582 28 19.2 28.3582 19.2 28.8C19.2 29.2418 19.5582 29.6 20 29.6Z" fill="#35495E"/>
</svg>
