<svg width="20" height="20" viewBox="0 0 20 20" fill="none" xmlns="http://www.w3.org/2000/svg">
<g clip-path="url(#clip0_32_173)">
<path d="M10.6431 15.1882L19.7337 6.09733C20.0888 5.74236 20.0888 5.16672 19.7337 4.81169C19.3786 4.45672 18.8031 4.45672 18.448 4.81175L10.0002 13.2598L1.55186 4.81169C1.19683 4.45672 0.62125 4.45672 0.26622 4.81175C0.088705 4.98921 -2.29178e-05 5.22187 -2.29279e-05 5.45454C-2.29381e-05 5.68721 0.088705 5.91987 0.266281 6.09739L9.35743 15.1882C9.52792 15.3588 9.75913 15.4545 10.0002 15.4545C10.2413 15.4545 10.4726 15.3588 10.6431 15.1882Z" fill="white"/>
</g>
<defs>
<clipPath id="clip0_32_173">
<rect width="20" height="20" fill="white" transform="translate(20) rotate(90)"/>
</clipPath>
</defs>
</svg>
